<?xml version="1.0" encoding="UTF-8" standalone="no"?>
<!-- Created with Inkscape (http://www.inkscape.org/) -->

<svg
   xmlns:dc="http://purl.org/dc/elements/1.1/"
   xmlns:cc="http://creativecommons.org/ns#"
   xmlns:rdf="http://www.w3.org/1999/02/22-rdf-syntax-ns#"
   xmlns:svg="http://www.w3.org/2000/svg"
   xmlns="http://www.w3.org/2000/svg"
   xmlns:sodipodi="http://sodipodi.sourceforge.net/DTD/sodipodi-0.dtd"
   xmlns:inkscape="http://www.inkscape.org/namespaces/inkscape"
   width="61mm"
   height="50mm"
   viewBox="0 0 216.1416 177.16522"
   id="svg2"
   version="1.1"
   inkscape:version="0.91 r13725"
   sodipodi:docname="edge-change.svg">
  <defs
     id="defs4">
    <marker
       inkscape:stockid="Arrow2Lend"
       orient="auto"
       refY="0.0"
       refX="0.0"
       id="marker5947"
       style="overflow:visible;"
       inkscape:isstock="true">
      <path
         id="path4951"
         style="fill-rule:evenodd;stroke-width:0.625;stroke-linejoin:round;stroke:#000000;stroke-opacity:1;fill:#000000;fill-opacity:1"
         d="M 8.7185878,4.0337352 L -2.2072895,0.016013256 L 8.7185884,-4.0017078 C 6.9730900,-1.6296469 6.9831476,1.6157441 8.7185878,4.0337352 z "
         transform="scale(1.1) rotate(180) translate(1,0)" />
    </marker>
    <marker
       inkscape:stockid="Arrow2Lend"
       orient="auto"
       refY="0"
       refX="0"
       id="Arrow2Lend"
       style="overflow:visible"
       inkscape:isstock="true">
      <path
         id="path5892"
         style="fill:#000000;fill-opacity:1;fill-rule:evenodd;stroke:#000000;stroke-width:0.625;stroke-linejoin:round;stroke-opacity:1"
         d="M 8.7185878,4.0337352 -2.2072895,0.01601326 8.7185884,-4.0017078 c -1.7454984,2.3720609 -1.7354408,5.6174519 -6e-7,8.035443 z"
         transform="matrix(-1.1,0,0,-1.1,-1.1,0)"
         inkscape:connector-curvature="0" />
    </marker>
    <marker
       inkscape:stockid="Arrow2Lend"
       orient="auto"
       refY="0"
       refX="0"
       id="Arrow2Lend-0"
       style="overflow:visible"
       inkscape:isstock="true">
      <path
         inkscape:connector-curvature="0"
         id="path5892-0"
         style="fill:#000000;fill-opacity:1;fill-rule:evenodd;stroke:#000000;stroke-width:0.625;stroke-linejoin:round;stroke-opacity:1"
         d="M 8.7185878,4.0337352 -2.2072895,0.01601326 8.7185884,-4.0017078 c -1.7454984,2.3720609 -1.7354408,5.6174519 -6e-7,8.035443 z"
         transform="matrix(-1.1,0,0,-1.1,-1.1,0)" />
    </marker>
    <marker
       inkscape:stockid="Arrow2Lend"
       orient="auto"
       refY="0"
       refX="0"
       id="Arrow2Lend-4"
       style="overflow:visible"
       inkscape:isstock="true">
      <path
         inkscape:connector-curvature="0"
         id="path5892-5"
         style="fill:#000000;fill-opacity:1;fill-rule:evenodd;stroke:#000000;stroke-width:0.625;stroke-linejoin:round;stroke-opacity:1"
         d="M 8.7185878,4.0337352 -2.2072895,0.01601326 8.7185884,-4.0017078 c -1.7454984,2.3720609 -1.7354408,5.6174519 -6e-7,8.035443 z"
         transform="matrix(-1.1,0,0,-1.1,-1.1,0)" />
    </marker>
  </defs>
  <sodipodi:namedview
     id="base"
     pagecolor="#ffffff"
     bordercolor="#666666"
     borderopacity="1.0"
     inkscape:pageopacity="0.0"
     inkscape:pageshadow="2"
     inkscape:zoom="5.6"
     inkscape:cx="73.669201"
     inkscape:cy="94.160339"
     inkscape:document-units="px"
     inkscape:current-layer="layer1"
     showgrid="false"
     inkscape:snap-center="false"
     inkscape:snap-object-midpoints="true"
     inkscape:window-width="1366"
     inkscape:window-height="684"
     inkscape:window-x="0"
     inkscape:window-y="27"
     inkscape:window-maximized="1" />
  <metadata
     id="metadata7">
    <rdf:RDF>
      <cc:Work
         rdf:about="">
        <dc:format>image/svg+xml</dc:format>
        <dc:type
           rdf:resource="http://purl.org/dc/dcmitype/StillImage" />
        <dc:title />
      </cc:Work>
    </rdf:RDF>
  </metadata>
  <g
     inkscape:label="Layer 1"
     inkscape:groupmode="layer"
     id="layer1"
     transform="translate(0,-875.19656)">
    <flowRoot
       xml:space="preserve"
       id="flowRoot6216"
       style="font-style:normal;font-weight:normal;font-size:12.5px;line-height:125%;font-family:sans-serif;letter-spacing:0px;word-spacing:0px;fill:#000000;fill-opacity:1;stroke:none;stroke-width:1px;stroke-linecap:butt;stroke-linejoin:miter;stroke-opacity:1"><flowRegion
         id="flowRegion6218"><rect
           id="rect6220"
           width="26.607143"
           height="12.857142"
           x="226.60715"
           y="63.790775" /></flowRegion><flowPara
         id="flowPara6222" /></flowRoot>    <flowRoot
       xml:space="preserve"
       id="flowRoot8860"
       style="fill:black;stroke:none;stroke-opacity:1;stroke-width:1px;stroke-linejoin:miter;stroke-linecap:butt;fill-opacity:1;font-family:sans-serif;font-style:normal;font-weight:normal;font-size:12.5px;line-height:125%;letter-spacing:0px;word-spacing:0px"><flowRegion
         id="flowRegion8862"><rect
           id="rect8864"
           width="691.42859"
           height="593.57141"
           x="-388.57144"
           y="-49.26321" /></flowRegion><flowPara
         id="flowPara8866" /></flowRoot>    <flowRoot
       xml:space="preserve"
       id="flowRoot8868"
       style="fill:black;stroke:none;stroke-opacity:1;stroke-width:1px;stroke-linejoin:miter;stroke-linecap:butt;fill-opacity:1;font-family:sans-serif;font-style:normal;font-weight:normal;font-size:12.5px;line-height:125%;letter-spacing:0px;word-spacing:0px"><flowRegion
         id="flowRegion8870"><rect
           id="rect8872"
           width="184.28572"
           height="224.28572"
           x="24.285715"
           y="-17.120356" /></flowRegion><flowPara
         id="flowPara8874" /></flowRoot>    <path
       style="fill:none;fill-rule:evenodd;stroke:#000000;stroke-width:1;stroke-linecap:butt;stroke-linejoin:miter;stroke-miterlimit:4;stroke-dasharray:2, 2;stroke-dashoffset:0;stroke-opacity:1"
       d="m 112.92847,926.75896 -10.30402,25.6443 -27.375541,56.61444"
       id="path7300"
       inkscape:connector-curvature="0"
       sodipodi:nodetypes="ccc" />
    <path
       style="fill:none;fill-rule:evenodd;stroke:#000000;stroke-width:1px;stroke-linecap:butt;stroke-linejoin:miter;stroke-opacity:1"
       d="m 22.869129,972.54706 79.755321,-20.1438 -36.870541,-37.3756 47.336121,-9.4949 -11.63522,-18.73787 89.53837,-0.76485 -67.66061,155.26666 z"
       id="path4179"
       inkscape:connector-curvature="0"
       sodipodi:nodetypes="cccccccc" />
    <path
       style="opacity:1;fill:#999999;fill-opacity:1;stroke:#280b0b;stroke-width:0.12953617;stroke-linejoin:miter;stroke-miterlimit:4;stroke-dasharray:0.38860851, 0.38860851;stroke-dashoffset:0;stroke-opacity:1"
       id="path4138"
       sodipodi:type="arc"
       sodipodi:cx="24.297699"
       sodipodi:cy="972.18988"
       sodipodi:rx="5.0790696"
       sodipodi:ry="5.0781374"
       sodipodi:start="0"
       sodipodi:end="6.2609598"
       d="m 29.376769,972.18988 a 5.0790696,5.0781374 0 0 1 -5.050849,5.07806 5.0790696,5.0781374 0 0 1 -5.106977,-5.02163 5.0790696,5.0781374 0 0 1 4.994096,-5.13386 5.0790696,5.0781374 0 0 1 5.162475,4.96458 l -5.077815,0.11285 z" />
    <path
       style="opacity:1;fill:#999999;fill-opacity:1;stroke:#280b0b;stroke-width:0.12953617;stroke-linejoin:miter;stroke-miterlimit:4;stroke-dasharray:0.38860851, 0.38860851;stroke-dashoffset:0;stroke-opacity:1"
       id="path4138-1"
       sodipodi:type="arc"
       sodipodi:cx="102.62445"
       sodipodi:cy="952.40326"
       sodipodi:rx="5.0790696"
       sodipodi:ry="5.0781374"
       sodipodi:start="0"
       sodipodi:end="6.2609598"
       d="m 107.70352,952.40326 a 5.0790696,5.0781374 0 0 1 -5.05085,5.07806 5.0790696,5.0781374 0 0 1 -5.106975,-5.02163 5.0790696,5.0781374 0 0 1 4.994095,-5.13386 5.0790696,5.0781374 0 0 1 5.16248,4.96457 l -5.07782,0.11286 z" />
    <path
       style="opacity:1;fill:#999999;fill-opacity:1;stroke:#280b0b;stroke-width:0.12953617;stroke-linejoin:miter;stroke-miterlimit:4;stroke-dasharray:0.38860851, 0.38860851;stroke-dashoffset:0;stroke-opacity:1"
       id="path4138-5"
       sodipodi:type="arc"
       sodipodi:cx="65.753922"
       sodipodi:cy="915.02759"
       sodipodi:rx="5.0790696"
       sodipodi:ry="5.0781374"
       sodipodi:start="0"
       sodipodi:end="6.2609598"
       d="m 70.832991,915.02759 a 5.0790696,5.0781374 0 0 1 -5.050848,5.07806 5.0790696,5.0781374 0 0 1 -5.106977,-5.02163 5.0790696,5.0781374 0 0 1 4.994096,-5.13386 5.0790696,5.0781374 0 0 1 5.162475,4.96457 l -5.077815,0.11286 z" />
    <path
       style="opacity:1;fill:#999999;fill-opacity:1;stroke:#280b0b;stroke-width:0.12953617;stroke-linejoin:miter;stroke-miterlimit:4;stroke-dasharray:0.38860851, 0.38860851;stroke-dashoffset:0;stroke-opacity:1"
       id="path4138-7"
       sodipodi:type="arc"
       sodipodi:cx="112.54164"
       sodipodi:cy="904.8797"
       sodipodi:rx="5.0790696"
       sodipodi:ry="5.0781374"
       sodipodi:start="0"
       sodipodi:end="6.2609598"
       d="m 117.62071,904.8797 a 5.0790696,5.0781374 0 0 1 -5.05085,5.07806 5.0790696,5.0781374 0 0 1 -5.10697,-5.02163 5.0790696,5.0781374 0 0 1 4.99409,-5.13386 5.0790696,5.0781374 0 0 1 5.16248,4.96457 l -5.07782,0.11286 z" />
    <path
       style="opacity:1;fill:#999999;fill-opacity:1;stroke:#280b0b;stroke-width:0.12953617;stroke-linejoin:miter;stroke-miterlimit:4;stroke-dasharray:0.38860851, 0.38860851;stroke-dashoffset:0;stroke-opacity:1"
       id="path4138-14"
       sodipodi:type="arc"
       sodipodi:cx="101.4548"
       sodipodi:cy="887.50916"
       sodipodi:rx="5.0790696"
       sodipodi:ry="5.0781374"
       sodipodi:start="0"
       sodipodi:end="6.2609598"
       d="m 106.53387,887.50916 a 5.0790696,5.0781374 0 0 1 -5.05085,5.07805 5.0790696,5.0781374 0 0 1 -5.106973,-5.02162 5.0790696,5.0781374 0 0 1 4.994093,-5.13387 5.0790696,5.0781374 0 0 1 5.16248,4.96458 l -5.07782,0.11286 z" />
    <path
       style="opacity:1;fill:#999999;fill-opacity:1;stroke:#280b0b;stroke-width:0.12953617;stroke-linejoin:miter;stroke-miterlimit:4;stroke-dasharray:0.38860851, 0.38860851;stroke-dashoffset:0;stroke-opacity:1"
       id="path4138-4"
       sodipodi:type="arc"
       sodipodi:cx="123.33257"
       sodipodi:cy="1041.2966"
       sodipodi:rx="5.0790696"
       sodipodi:ry="5.0781374"
       sodipodi:start="0"
       sodipodi:end="6.2609598"
       d="m 128.41164,1041.2966 a 5.0790696,5.0781374 0 0 1 -5.05085,5.0781 5.0790696,5.0781374 0 0 1 -5.10697,-5.0216 5.0790696,5.0781374 0 0 1 4.99409,-5.1339 5.0790696,5.0781374 0 0 1 5.16248,4.9646 l -5.07782,0.1128 z" />
    <path
       style="opacity:1;fill:#000000;fill-opacity:1;stroke:#280b0b;stroke-width:0.0627614;stroke-linejoin:miter;stroke-miterlimit:4;stroke-dasharray:0.18828419, 0.18828419;stroke-dashoffset:0;stroke-opacity:1"
       id="path4138-2"
       sodipodi:type="arc"
       sodipodi:cx="103.76091"
       sodipodi:cy="982.32855"
       sodipodi:rx="2.4608533"
       sodipodi:ry="2.4604015"
       sodipodi:start="0"
       sodipodi:end="6.2609598"
       d="m 106.22176,982.32855 a 2.4608533,2.4604015 0 0 1 -2.44718,2.46037 2.4608533,2.4604015 0 0 1 -2.47437,-2.43303 2.4608533,2.4604015 0 0 1 2.41968,-2.4874 2.4608533,2.4604015 0 0 1 2.50127,2.40538 l -2.46025,0.0547 z" />
    <path
       style="fill:#000000;fill-rule:evenodd;stroke:#000000;stroke-width:0.51499969;stroke-linecap:butt;stroke-linejoin:miter;stroke-opacity:1;stroke-miterlimit:4;stroke-dasharray:none;marker-end:url(#marker5947)"
       d="m 102.9216,981.92736 10.0723,-51.9101"
       id="path5865"
       inkscape:connector-curvature="0"
       sodipodi:nodetypes="cc" />
    <path
       style="opacity:1;fill:#000000;fill-opacity:1;stroke:#280b0b;stroke-width:0.0627614;stroke-linejoin:miter;stroke-miterlimit:4;stroke-dasharray:0.18828419, 0.18828419;stroke-dashoffset:0;stroke-opacity:1"
       id="path4138-2-7"
       sodipodi:type="arc"
       sodipodi:cx="112.92848"
       sodipodi:cy="926.75897"
       sodipodi:rx="2.4608533"
       sodipodi:ry="2.4604015"
       sodipodi:start="0"
       sodipodi:end="6.2609598"
       d="m 115.38934,926.75897 a 2.4608533,2.4604015 0 0 1 -2.44718,2.46037 2.4608533,2.4604015 0 0 1 -2.47438,-2.43303 2.4608533,2.4604015 0 0 1 2.41968,-2.4874 2.4608533,2.4604015 0 0 1 2.50127,2.40538 l -2.46025,0.0547 z" />
    <text
       xml:space="preserve"
       style="font-style:normal;font-weight:normal;font-size:9.79386902px;line-height:125%;font-family:sans-serif;letter-spacing:0px;word-spacing:0px;fill:#000000;fill-opacity:1;stroke:none;stroke-width:1px;stroke-linecap:butt;stroke-linejoin:miter;stroke-opacity:1"
       x="99.751266"
       y="954.81622"
       id="text6186"
       sodipodi:linespacing="125%"><tspan
         sodipodi:role="line"
         id="tspan6188"
         x="99.751266"
         y="954.81622">a</tspan></text>
    <text
       xml:space="preserve"
       style="font-style:normal;font-weight:normal;font-size:9.79386902px;line-height:125%;font-family:sans-serif;letter-spacing:0px;word-spacing:0px;opacity:1;fill:#000000;fill-opacity:1;stroke:none;stroke-width:1px;stroke-linecap:butt;stroke-linejoin:miter;stroke-opacity:1"
       x="62.518005"
       y="918.61316"
       id="text6186-6"
       sodipodi:linespacing="125%"><tspan
         sodipodi:role="line"
         id="tspan6188-4"
         x="62.518005"
         y="918.61316">b</tspan></text>
    <text
       xml:space="preserve"
       style="font-style:normal;font-weight:normal;font-size:9.79386902px;line-height:125%;font-family:sans-serif;letter-spacing:0px;word-spacing:0px;fill:#000000;fill-opacity:1;stroke:none;stroke-width:1px;stroke-linecap:butt;stroke-linejoin:miter;stroke-opacity:1"
       x="109.88362"
       y="907.77417"
       id="text6186-9"
       sodipodi:linespacing="125%"><tspan
         sodipodi:role="line"
         id="tspan6188-0"
         x="109.88362"
         y="907.77417">c</tspan></text>
    <text
       xml:space="preserve"
       style="font-style:normal;font-weight:normal;font-size:9.79386902px;line-height:125%;font-family:sans-serif;letter-spacing:0px;word-spacing:0px;fill:#000000;fill-opacity:1;stroke:none;stroke-width:1px;stroke-linecap:butt;stroke-linejoin:miter;stroke-opacity:1"
       x="98.589417"
       y="890.93463"
       id="text6186-60"
       sodipodi:linespacing="125%"><tspan
         sodipodi:role="line"
         id="tspan6188-45"
         x="98.589417"
         y="890.93463">d</tspan></text>
    <text
       xml:space="preserve"
       style="font-style:normal;font-weight:normal;font-size:9.79386902px;line-height:125%;font-family:sans-serif;letter-spacing:0px;word-spacing:0px;fill:#000000;fill-opacity:1;stroke:none;stroke-width:1px;stroke-linecap:butt;stroke-linejoin:miter;stroke-opacity:1"
       x="121.0945"
       y="1044.9202"
       id="text6186-65"
       sodipodi:linespacing="125%"><tspan
         sodipodi:role="line"
         id="tspan6188-6"
         x="121.0945"
         y="1044.9202">f</tspan></text>
    <path
       style="opacity:1;fill:#999999;fill-opacity:1;stroke:#280b0b;stroke-width:0.12953617;stroke-linejoin:miter;stroke-miterlimit:4;stroke-dasharray:0.38860851, 0.38860851;stroke-dashoffset:0;stroke-opacity:1"
       id="path4138-7-0-5"
       sodipodi:type="arc"
       sodipodi:cx="191.41631"
       sodipodi:cy="886.28418"
       sodipodi:rx="5.0790696"
       sodipodi:ry="5.0781374"
       sodipodi:start="0"
       sodipodi:end="6.2609598"
       d="m 196.49538,886.28418 a 5.0790696,5.0781374 0 0 1 -5.05085,5.07806 5.0790696,5.0781374 0 0 1 -5.10698,-5.02163 5.0790696,5.0781374 0 0 1 4.9941,-5.13386 5.0790696,5.0781374 0 0 1 5.16247,4.96457 l -5.07781,0.11286 z" />
    <text
       xml:space="preserve"
       style="font-style:normal;font-weight:normal;font-size:9.79386902px;line-height:125%;font-family:sans-serif;letter-spacing:0px;word-spacing:0px;fill:#000000;fill-opacity:1;stroke:none;stroke-width:1px;stroke-linecap:butt;stroke-linejoin:miter;stroke-opacity:1"
       x="188.45576"
       y="889.2384"
       id="text6186-0"
       sodipodi:linespacing="125%"><tspan
         sodipodi:role="line"
         id="tspan6188-9"
         x="188.45576"
         y="889.2384">e</tspan></text>
    <text
       xml:space="preserve"
       style="font-style:normal;font-weight:normal;font-size:9.79386902px;line-height:125%;font-family:sans-serif;letter-spacing:0px;word-spacing:0px;fill:#000000;fill-opacity:1;stroke:none;stroke-width:1px;stroke-linecap:butt;stroke-linejoin:miter;stroke-opacity:1"
       x="21.043945"
       y="974.09991"
       id="text6186-65-9-1"
       sodipodi:linespacing="125%"><tspan
         sodipodi:role="line"
         id="tspan6188-6-5-7"
         x="21.043945"
         y="974.09991">g</tspan></text>
  </g>
</svg>
